Coordinates
version=1
nRows=8
nColumns=34
inDegrees=yes

Units are S.I. units (second, meters, Newtons, ...)
If the header above contains a line with 'inDegrees', this indicates whether rotational values are in degrees (yes) or radians (no).

endheader
time	pelvis_tilt	pelvis_list	pelvis_rotation	pelvis_tx	pelvis_ty	pelvis_tz	hip_flexion_r	hip_adduction_r	hip_rotation_r	knee_angle_r	ankle_angle_r	subtalar_angle_r	mtp_angle_r	hip_flexion_l	hip_adduction_l	hip_rotation_l	knee_angle_l	ankle_angle_l	subtalar_angle_l	mtp_angle_l	lumbar_extension	lumbar_bending	lumbar_rotation	arm_flex_r	arm_add_r	arm_rot_r	elbow_flex_r	pro_sup_r	arm_flex_l	arm_add_l	arm_rot_l	elbow_flex_l	pro_sup_l
      0.00000000	      0.20635800	     -3.83761499	      2.98077912	      0.83985260	      1.05755606	      0.08943419	      6.90808128	      4.69836804	     -2.91647876	     10.92060556	      5.96610020	     -8.63000012	      0.00000000	      4.46533334	     -4.73820054	     -3.18708658	      8.75238645	     13.88719260	     -0.97717204	      0.00000000	     -1.19266891	      4.56108396	     -2.59597927	      4.31061669	     -5.44121814	      7.01246739	     24.66133537	     87.78100063	     -4.22937765	     -1.39672018	     -5.79036126	     28.64009020	     84.91754687
      0.01666670	     -1.09419986	     -2.66227350	      3.47958442	      0.84447587	      1.05412432	      0.08858937	      7.59769266	      3.57619649	     -2.94422915	     10.11764304	      8.51508394	     -5.62644348	      0.00000000	      6.07567133	     -3.03834213	     -3.54662621	      9.21533029	     14.96673036	      0.95883914	      0.00000000	      1.80423780	      3.29191330	     -2.40451767	      3.32614259	     -4.99332021	      3.94352947	     24.00030059	     87.69841644	     -4.57586144	     -1.67795149	     -7.12014630	     28.35259748	     84.48451835
      0.03333330	     -2.01960651	     -1.61716209	      3.36408635	      0.84708853	      1.05220827	      0.08949190	      7.76002980	      2.49450537	     -4.20681123	      8.82333898	      9.31327657	     -3.81606246	      0.00000000	      6.81720988	     -1.90900670	     -4.62191220	      9.30605253	     15.57637463	      2.62431652	      0.00000000	      3.53953542	      1.99654267	     -1.77479963	      2.50993875	     -4.54481561	      2.48185026	     24.06054268	     88.02627664	     -4.74974430	     -2.29185168	     -5.81417794	     27.74909343	     84.35005232
      0.05000000	     -1.89933239	     -1.17967544	      3.59389947	      0.84747033	      1.05332027	      0.09009922	      7.23217779	      1.99459636	     -5.01999675	      8.28681336	     10.06788570	     -2.12466917	      0.00000000	      6.32656084	     -1.46532159	     -4.49600835	      9.03353271	     15.43118655	      2.75466723	      0.00000000	      3.65237106	      1.45832020	     -1.04140265	      1.60774863	     -4.26475355	      0.98170135	     24.54213433	     89.18971992	     -4.29356445	     -3.11113187	     -1.48579422	     26.98427730	     84.13164103
      0.06666670	     -1.98762228	     -1.03003243	      3.59735767	      0.84660126	      1.05357828	      0.09105846	      7.13065532	      1.92947869	     -4.91376906	      7.83644268	     10.11906149	     -2.01192489	      0.00000000	      6.29207762	     -1.37590869	     -4.51415232	      8.89372550	     15.34097053	      2.76969559	      0.00000000	      3.72345144	      1.35934719	     -0.91219150	      1.50236275	     -4.13050693	      1.00810998	     24.50686558	     89.22789312	     -4.30285465	     -3.00670203	     -1.41939982	     27.00519318	     84.11490573
      0.08333330	     -1.94795345	     -0.98031068	      3.59479124	      0.84567932	      1.05371967	      0.09179878	      7.15708732	      1.93561613	     -4.90798603	      7.80945897	     10.11779804	     -2.00262049	      0.00000000	      6.29404344	     -1.40594200	     -4.51085228	      8.88447104	     15.33181829	      2.77184938	      0.00000000	      3.73068771	      1.35284063	     -0.91686476	      1.49193087	     -4.13160754	      1.00843756	     24.50261529	     89.22911168	     -4.29375311	     -3.00213109	     -1.41677737	     27.00833397	     84.11455090
      0.10000000	     -1.36983254	     -0.76938720	      3.43001087	      0.84595093	      1.05502676	      0.09267410	      6.31213082	      1.79805232	     -4.80987263	      7.22823008	     10.17104722	     -0.39670928	      0.00000000	      5.39196425	     -1.28129733	     -4.58645054	      8.21549465	     13.94347654	      2.42009503	      0.00000000	      3.09783899	      0.95501245	     -0.00894327	      1.31008523	     -4.06519940	      1.03170624	     23.96987804	     89.69841507	     -3.35594543	     -3.02571123	     -0.67832061	     26.56839397	     83.93369788
      0.11666670	     -1.36926622	     -0.72265053	      3.49792048	      0.84663472	      1.05534102	      0.09298286	      6.23636368	      1.79217361	     -4.69240610	      7.00959166	     10.01597169	     -0.19871468	      0.00000000	      5.41700775	     -1.28971808	     -4.56322872	      8.10715930	     13.65184808	      2.49569009	      0.00000000	      3.12979082	      0.80217661	     -0.10723177	      1.28229942	     -3.89589162	      1.04089119	     23.97691683	     89.73671376	     -3.15963453	     -2.99480129	     -0.62935729	     26.56531774	     83.91417819
